<svg width="20px" height="21px" viewBox="0 0 20 21" version="1.1" xmlns="http://www.w3.org/2000/svg">
    <defs>
        <polygon id="path-1"
                 points="1.99541608e-05 0.247731063 19.8935625 0.247731063 19.8935625 20.7123288 1.99541608e-05 20.7123288"/>
    </defs>
    <g stroke="none" stroke-width="1" fill="none" fill-rule="evenodd">
        <g transform="translate(-349.000000, -4062.000000)">
            <g transform="translate(57.000000, 3968.000000)">
                <g transform="translate(240.000000, 94.000000)">
                    <g transform="translate(52.000000, 0.000000)">
                        <g id="Group-3" transform="translate(0.000000, 0.039900)">
                            <path
                              d="M18.0477366,10.4818767 C18.0508113,9.22360274 18.0667436,7.9650411 18.0130769,6.70734247 C17.9862436,6.07935616 17.9546585,5.45079452 17.7788443,4.84121918 C17.5963217,4.20863014 17.291372,3.65716438 16.816478,3.20494521 C16.1520734,2.57235616 15.3389675,2.32380822 14.4682818,2.23779452 C13.536103,2.14545205 12.5988929,2.14343836 11.6633599,2.13854795 C10.066497,2.13020548 8.46907517,2.11754795 6.87221233,2.16357534 C6.23408212,2.18227397 5.59511337,2.19349315 4.96341198,2.30280822 C4.05694844,2.45958904 3.27850226,2.85715068 2.70242413,3.61573973 C2.1987401,4.27910959 2.00587552,5.05812329 1.92677309,5.87683562 C1.85018628,6.66706849 1.84767066,7.46132877 1.83900573,8.25328767 C1.81664462,10.2425342 1.8102158,12.2326438 1.86779566,14.2216027 C1.88456649,14.7975205 1.92174184,15.3740137 2.05618802,15.9404384 C2.24569844,16.7393014 2.63030955,17.4095753 3.25222795,17.9250822 C3.83669149,18.4098082 4.53156302,18.627 5.26109427,18.7210685 C6.01550226,18.8180137 6.77745712,18.8211781 7.53605781,18.8252055 C9.51305955,18.8358493 11.4906203,18.8594384 13.467063,18.7964384 C13.9735422,18.7803288 14.4791828,18.7524247 14.9781151,18.6554795 C15.7655057,18.5024384 16.466247,18.1790959 17.018287,17.5565753 C17.4948582,17.0194932 17.7486568,16.377411 17.8817054,15.6757808 C18.0407488,14.8363562 18.0183877,13.9828356 18.0421464,13.1350685 C18.0670231,12.2513425 18.0477366,11.3661781 18.0477366,10.4818767 M10.2973755,20.7025479 C8.84054913,20.7025479 7.84799531,20.7293014 6.8576776,20.6944932 C5.96938247,20.6634247 5.07381997,20.6645753 4.20229566,20.4341507 C3.0800474,20.1378493 2.11181128,19.5849452 1.36159601,18.6549041 C0.625915451,17.743274 0.258634201,16.6820548 0.132852951,15.520726 C0.0383772569,14.6473562 0.00455607639,13.7702466 0.00399704861,12.8919863 C0.00287899306,11.1627945 -0.00662447917,9.43360274 0.00846927083,7.70469863 C0.0160161458,6.84456164 0.0378182292,5.98212329 0.166674132,5.12917808 C0.404260938,3.55417808 1.10639983,2.26023288 2.3938408,1.34457534 C3.16949184,0.793109589 4.04660642,0.493356164 4.98130087,0.391808219 C7.00190677,0.172315068 9.03033906,0.274726027 11.0556967,0.254013699 C11.9202332,0.24509589 12.7850491,0.24969863 13.648747,0.291123288 C14.5683477,0.335136986 15.4820786,0.408205479 16.3572366,0.748232877 C17.3168078,1.12105479 18.106155,1.71826027 18.7149363,2.5660274 C19.3692783,3.47736986 19.6921168,4.5190274 19.7737349,5.63346575 C19.9685561,8.28809589 19.8687696,10.9476164 19.8631793,13.6051233 C19.8615023,14.4180822 19.8355075,15.2370822 19.6800977,16.0416986 C19.4522939,17.2220137 18.9757227,18.2636712 18.1128634,19.1030959 C17.4129606,19.7840137 16.586997,20.2054521 15.6590109,20.433863 C15.0949519,20.5728082 14.5219484,20.6127945 13.9436342,20.6493288 C12.5731776,20.7359178 11.2024415,20.685863 10.2973755,20.7025479"
                              id="Fill-1" fill="#3D3D35"/>
                        </g>
                        <path
                          d="M9.94373455,13.9017986 C11.7513509,13.8997849 13.2296998,12.3837575 13.2207554,10.5228123 C13.2112519,8.64259315 11.7806998,7.16252466 9.94121892,7.14756575 C8.13388212,7.13260685 6.64267552,8.67682603 6.66196198,10.543237 C6.68124844,12.4162644 8.12577622,13.8845384 9.94373455,13.9017986 M9.9166217,15.7828808 C7.14468247,15.8012918 4.80319462,13.4392233 4.8230401,10.4811 C4.84232656,7.5871274 7.12539601,5.25497671 9.96665469,5.2581411 C12.7796825,5.26130548 15.0470991,7.61790822 15.0582797,10.5159082 C15.0691807,13.4222507 12.7562033,15.8254562 9.9166217,15.7828808"
                          id="Fill-4" fill="#3D3D35"/>
                        <path
                          d="M16.4422927,5.07751233 C16.4422927,5.7667726 15.9053465,6.32370411 15.2412215,6.32312877 C14.5770965,6.32226575 14.0177892,5.75526575 14.0208639,5.08556712 C14.0239385,4.38451233 14.5620028,3.82700548 15.2336747,3.82959452 C15.925751,3.83160822 16.4425722,4.36523836 16.4422927,5.07751233"
                          id="Fill-6" fill="#3D3D35"/>
                    </g>
                </g>
            </g>
        </g>
    </g>
</svg>