<svg width="21px" height="16px" viewBox="0 0 21 16" version="1.1" xmlns="http://www.w3.org/2000/svg">
    <defs>
        <polygon id="path-1" points="0 0 21 0 21 21 0 21"></polygon>
    </defs>
    <g id="웹" stroke="none" stroke-width="1" fill="none" fill-rule="evenodd">
        <g id="guide" transform="translate(-297.000000, -4065.000000)">
            <g id="Group-21" transform="translate(57.000000, 3968.000000)">
                <g id="Group-40" transform="translate(240.000000, 94.000000)">
                    <g id="Group-3" transform="translate(0.000000, 1.000000)">
                        <path d="M14.0041948,9.38230943 L8.33261604,12.4082118 L8.33118599,7.74960998 L8.33118599,6.33353058 L10.8889736,7.7080935 L14.0041948,9.38230943 Z M19.9554914,3.13308946 C19.1566654,2.27282264 18.261454,2.26745656 17.8524597,2.21746732 C14.9119906,2 10.5051482,2 10.5051482,2 L10.4954238,2 C10.4954238,2 6.0860073,2 3.14839834,2.21859702 C2.73797396,2.26745656 1.84419263,2.27282264 1.0442226,3.13365431 C0.415858575,3.78944537 0.210503378,5.28064985 0.210503378,5.28064985 C0.210503378,5.28064985 0,7.029426 0,8.77989671 L0,8.99058583 L0,10.4190919 C0,12.1701275 0.210503378,13.9197509 0.210503378,13.9197509 C0.210503378,13.9197509 0.415858575,15.4101081 1.0442226,16.0656168 C1.84419263,16.9270133 2.89442144,16.8996181 3.36033177,16.9891468 C5.04064066,17.1546479 10.5,17.2068966 10.5,17.2068966 C10.5,17.2068966 14.9119906,17.1987062 17.8524597,16.9812389 C18.261454,16.9306848 19.1566654,16.9270133 19.9554914,16.0650519 C20.5844274,15.4092609 20.7889246,13.9191861 20.7889246,13.9191861 C20.7889246,13.9191861 21,12.1701275 21,10.4190919 L21,9.08180913 L21,8.77989671 C21,7.029426 20.7889246,5.27980257 20.7889246,5.27980257 C20.7889246,5.27980257 20.5844274,3.7885981 19.9554914,3.13308946 Z" id="Fill-1" fill="#3D3D35"></path>
                    </g>
                </g>
            </g>
        </g>
    </g>
</svg>