<svg width="10px" height="19px" viewBox="0 0 10 19" version="1.1" xmlns="http://www.w3.org/2000/svg">
    <defs>
        <polygon points="0 0 10 0 10 19 0 19"/>
    </defs>
    <g stroke="none" stroke-width="1" fill="none" fill-rule="evenodd">
        <g transform="translate(-400.000000, -4063.000000)">
            <g transform="translate(57.000000, 3968.000000)">
                <g transform="translate(240.000000, 94.000000)">
                    <g transform="translate(103.000000, 1.000000)">
                        <path
                          d="M6.59419232,5.70038815 L6.59419232,4.18090569 C6.59419232,3.44057201 7.15102875,3.26823289 7.54180651,3.26823289 L9.9457172,3.26823289 L9.9457172,0.012679605 L6.63505034,0 C2.96045528,0 2.12520064,2.42853252 2.12520064,3.98268982 L2.12520064,5.70038815 L0,5.70038815 L0,7.9959142 L0,9.49987062 L2.14329491,9.49987062 L2.14329491,19 L6.42871735,19 L6.42871735,9.49987062 L9.60951408,9.49987062 L9.76331534,8.00755873 L10,5.70038815 L6.59419232,5.70038815 Z"
                          fill="#3D3D35"/>
                    </g>
                </g>
            </g>
        </g>
    </g>
</svg>