<?xml version="1.0" encoding="UTF-8"?>
<svg width="66px" height="20px" viewBox="0 0 66 20" version="1.1" xmlns="http://www.w3.org/2000/svg" xmlns:xlink="http://www.w3.org/1999/xlink">
    <!-- Generator: Sketch 51.2 (57519) - http://www.bohemiancoding.com/sketch -->
    <title>Fill 1</title>
    <desc>Created with Sketch.</desc>
    <defs></defs>
    <g id="Page-1" stroke="none" stroke-width="1" fill="none" fill-rule="evenodd">
        <g id="mypage_내일의옷장_375_-copy-3" transform="translate(-113.000000, -18.000000)" fill="#3D3D35">
            <g id="Group-7">
                <path d="M169.091687,37.6747348 L169.091687,29.6182465 L163.448808,18 L168.058257,18 L169.886563,22.7288879 C170.442884,24.1594451 170.81315,25.2104107 171.26401,26.4946193 L171.316971,26.4946193 C171.713948,25.2689501 172.138096,24.1301754 172.668167,22.7288879 L174.469762,18 L179,18 L173.118105,29.4718979 L173.118105,37.6747348 L169.091687,37.6747348 Z M151.776664,18 L155.830253,18 L155.830253,33.9382731 L162.930251,33.9382731 L162.930251,37.6747348 L151.776664,37.6747348 L151.776664,18 Z M135.317305,18 L135.317305,29.3260067 C135.317305,32.7121465 136.482908,34.4344862 138.549308,34.4344862 C140.668669,34.4344862 141.834272,32.7999557 141.834272,29.3260067 L141.834272,18 L145.861611,18 L145.861611,29.0342242 C145.861611,35.1058602 143.079546,37.9957869 138.417136,37.9957869 C133.913148,37.9957869 131.264177,35.2517514 131.264177,28.9756848 L131.264177,18 L135.317305,18 Z M113,35.2814785 L121.503695,21.7950011 L121.503695,21.6779223 L113.794876,21.6779223 L113.794876,18 L126.749597,18 L126.749597,20.5688746 L118.431036,33.8797336 L118.431036,33.9968125 L126.881769,33.9968125 L126.881769,37.6747348 L113,37.6747348 L113,35.2814785 Z" id="Fill-1"></path>
            </g>
        </g>
    </g>
</svg>