<svg xmlns="http://www.w3.org/2000/svg" width="35" height="35" viewBox="0 0 35 35">
    <g fill="#FFF" fill-rule="evenodd">
        <path d="M17.355 33.344c-8.815 0-15.988-7.172-15.988-15.988 0-8.817 7.173-15.989 15.988-15.989 8.816 0 15.989 7.172 15.989 15.989 0 8.816-7.173 15.988-15.989 15.988m0-33.344C7.786 0 0 7.785 0 17.356c0 9.57 7.786 17.355 17.355 17.355 9.57 0 17.356-7.785 17.356-17.355C34.711 7.785 26.925 0 17.355 0"/>
        <path d="M28.08 21.65a.682.682 0 0 0-.915.308 10.957 10.957 0 0 1-9.87 6.123 10.958 10.958 0 0 1-9.87-6.123.683.683 0 1 0-1.224.608 12.425 12.425 0 0 0 4.483 4.97 12.34 12.34 0 0 0 6.612 1.912c2.348 0 4.636-.661 6.61-1.912a12.418 12.418 0 0 0 4.484-4.97.683.683 0 0 0-.31-.916M7.866 12.623a.685.685 0 0 0 .917-.308 2.596 2.596 0 0 1 2.338-1.45c.998 0 1.894.556 2.339 1.45a.682.682 0 1 0 1.224-.607 3.955 3.955 0 0 0-3.563-2.21 3.956 3.956 0 0 0-3.563 2.21.683.683 0 0 0 .308.915M20.335 12.623a.684.684 0 0 0 .916-.308 2.597 2.597 0 0 1 2.34-1.45c.997 0 1.892.556 2.337 1.45a.683.683 0 1 0 1.224-.607 3.954 3.954 0 0 0-3.562-2.21 3.956 3.956 0 0 0-3.564 2.21.683.683 0 0 0 .31.915"/>
    </g>
</svg>
