<svg xmlns="http://www.w3.org/2000/svg" width="35" height="35" viewBox="0 0 35 35">
    <g fill="none" fill-rule="evenodd">
        <path fill="#FFF" d="M17.355 0C7.786 0 0 7.785 0 17.356c0 9.57 7.786 17.355 17.355 17.355 9.57 0 17.356-7.785 17.356-17.355C34.711 7.785 26.925 0 17.355 0"/>
        <path fill="#000" d="M26.863 21.866H6.813a.683.683 0 0 0 0 1.367h20.05a.683.683 0 1 0 0-1.367" opacity=".33"/>
        <path fill="#000" d="M17.295 28.37c-3.827 0-7.282-1.95-9.29-5.137h18.581c-2.01 3.186-5.464 5.136-9.29 5.136m10.785-6.43c-.004-.003-.007-.002-.01-.004-.042-.042-.104-.069-.209-.069H6.813v.007a.68.68 0 0 0-.304.065.683.683 0 0 0-.309.916 12.419 12.419 0 0 0 4.483 4.97 12.34 12.34 0 0 0 6.612 1.912c2.35 0 4.636-.66 6.611-1.912a12.412 12.412 0 0 0 4.483-4.97.683.683 0 0 0-.308-.916M7.866 12.912a.685.685 0 0 0 .917-.309 2.596 2.596 0 0 1 2.338-1.45c.998 0 1.894.556 2.339 1.45a.682.682 0 1 0 1.224-.607 3.955 3.955 0 0 0-3.563-2.21 3.956 3.956 0 0 0-3.563 2.21.683.683 0 0 0 .308.916M20.335 12.912a.684.684 0 0 0 .916-.309 2.597 2.597 0 0 1 2.34-1.45c.997 0 1.892.556 2.337 1.45a.683.683 0 1 0 1.224-.607 3.954 3.954 0 0 0-3.562-2.21 3.956 3.956 0 0 0-3.564 2.21.683.683 0 0 0 .31.916"/>
    </g>
</svg>
