<svg xmlns="http://www.w3.org/2000/svg" width="35" height="35" viewBox="0 0 35 35">
    <g fill="none" fill-rule="evenodd">
        <path fill="#FFF" d="M17.355 0C7.785 0 0 7.786 0 17.357c0 9.569 7.785 17.355 17.355 17.355S34.71 26.926 34.71 17.357C34.71 7.786 26.925 0 17.355 0"/>
        <path fill="#000" d="M10.191 12.301a.93.93 0 0 1 .93-.93.93.93 0 0 1 0 1.859.93.93 0 0 1-.93-.929m3.225 0a2.299 2.299 0 0 0-2.296-2.297 2.299 2.299 0 0 0-2.296 2.297 2.299 2.299 0 0 0 2.296 2.296 2.299 2.299 0 0 0 2.296-2.296M23.59 13.23a.93.93 0 0 1-.93-.93.93.93 0 1 1 .929.929m0-3.225a2.3 2.3 0 0 0-2.296 2.297 2.299 2.299 0 0 0 2.296 2.296 2.299 2.299 0 0 0 2.296-2.296 2.3 2.3 0 0 0-2.296-2.297M23.88 25.438H10.83a.684.684 0 0 0 0 1.367h13.05a.683.683 0 1 0 0-1.367"/>
    </g>
</svg>
