<svg width="66" height="66" viewBox="0 0 66 66" xmlns="http://www.w3.org/2000/svg"><title>ico_feedback1</title><desc>Created with Sketch.</desc><g fill="none"><path d="M32.751 2c-16.404 0-29.751 13.346-29.751 29.753 0 16.406 13.347 29.751 29.751 29.751 16.406 0 29.753-13.346 29.753-29.751 0-16.407-13.347-29.753-29.753-29.753" fill="#fff"/><path d="M49.051 39.485h-34.371c-.648 0-1.171.526-1.171 1.173 0 .648.523 1.171 1.171 1.171h34.371c.648 0 1.173-.523 1.173-1.171 0-.646-.525-1.173-1.173-1.173" fill="#000" opacity=".33"/><path d="M32.649 50.633c-6.561 0-12.483-3.343-15.927-8.805h31.855c-3.446 5.462-9.367 8.805-15.927 8.805m18.49-11.025l-.017-.005c-.072-.072-.178-.118-.358-.118h-36.084v.012c-.177 0-.353.029-.521.111-.579.286-.818.991-.53 1.57 1.731 3.489 4.39 6.434 7.685 8.52 3.387 2.145 7.306 3.278 11.335 3.278 4.027 0 7.947-1.133 11.333-3.278 3.297-2.086 5.954-5.031 7.685-8.52.288-.579.051-1.284-.528-1.57" fill="#3D3D35"/><path d="M16.484 24.135c.581.288 1.284.05 1.572-.53.761-1.533 2.297-2.486 4.008-2.486 1.711 0 3.247.953 4.01 2.486.204.413.619.651 1.051.651.175 0 .351-.038.519-.122.579-.288.816-.991.528-1.57-1.159-2.337-3.501-3.789-6.108-3.789-2.607 0-4.947 1.452-6.108 3.789-.288.579-.051 1.282.528 1.57" fill="#3D3D35"/><path d="M39.431 23.606c.761-1.533 2.299-2.486 4.01-2.486 1.711 0 3.245.953 4.008 2.486.206.413.619.651 1.051.651.175 0 .353-.038.521-.122.579-.288.814-.991.526-1.57-1.159-2.337-3.501-3.789-6.106-3.789-2.609 0-4.949 1.452-6.11 3.789-.288.579-.051 1.282.53 1.57.579.288 1.282.05 1.57-.53z" fill="#3D3D35"/></g></svg>