<svg width="62" height="62" viewBox="0 0 62 62" xmlns="http://www.w3.org/2000/svg"><title>ico_feedback3</title><desc>Created with Sketch.</desc><g fill="#fff"><path d="M30.751 57.163c-15.113 0-27.408-12.297-27.408-27.408 0-15.115 12.295-27.41 27.408-27.41 15.113 0 27.408 12.295 27.408 27.41 0 15.111-12.295 27.408-27.408 27.408m0-57.163c-16.406 0-29.751 13.347-29.751 29.755 0 16.404 13.346 29.751 29.751 29.751 16.406 0 29.751-13.347 29.751-29.751 0-16.407-13.346-29.755-29.751-29.755"/><path d="M18.471 21.087c0-.879.715-1.594 1.593-1.594s1.593.715 1.593 1.594c0 .878-.715 1.593-1.593 1.593s-1.593-.715-1.593-1.593m5.529 0c0-2.172-1.766-3.938-3.936-3.938s-3.936 1.766-3.936 3.938c0 2.17 1.766 3.936 3.936 3.936s3.936-1.766 3.936-3.936"/><path d="M41.439 22.679c-.878 0-1.593-.715-1.593-1.593s.715-1.593 1.593-1.593c.879 0 1.593.715 1.593 1.593s-.713 1.593-1.593 1.593m0-5.53c-2.17 0-3.936 1.767-3.936 3.938 0 2.17 1.766 3.936 3.936 3.936s3.936-1.766 3.936-3.936-1.766-3.938-3.936-3.938"/><path d="M41.937 43.607h-22.371c-.646 0-1.171.526-1.171 1.173 0 .648.525 1.171 1.171 1.171h22.371c.648 0 1.173-.523 1.173-1.171 0-.646-.525-1.173-1.173-1.173"/></g></svg>