<svg width="62" height="62" viewBox="0 0 62 62" xmlns="http://www.w3.org/2000/svg"><title>ico_feedback2</title><desc>Created with Sketch.</desc><g fill="#fff"><path d="M30.751 57.161c-15.111 0-27.408-12.295-27.408-27.408 0-15.115 12.297-27.41 27.408-27.41 15.113 0 27.41 12.295 27.41 27.41 0 15.113-12.297 27.408-27.41 27.408m0-57.161c-16.404 0-29.751 13.346-29.751 29.753 0 16.406 13.347 29.751 29.751 29.751 16.406 0 29.753-13.346 29.753-29.751 0-16.407-13.347-29.753-29.753-29.753"/><path d="M49.138 37.114c-.579-.29-1.282-.051-1.57.528-3.214 6.473-9.696 10.497-16.918 10.497-7.222 0-13.706-4.023-16.92-10.497-.288-.579-.989-.816-1.57-.528-.579.286-.818.991-.53 1.57 1.731 3.487 4.39 6.434 7.685 8.52 3.387 2.145 7.306 3.278 11.335 3.278 4.025 0 7.947-1.133 11.333-3.278 3.297-2.086 5.954-5.033 7.685-8.52.288-.579.051-1.284-.53-1.57"/><path d="M14.484 21.64c.581.288 1.284.05 1.572-.53.761-1.533 2.297-2.486 4.008-2.486 1.711 0 3.247.953 4.01 2.486.204.413.619.651 1.051.651.175 0 .351-.038.519-.122.579-.288.816-.991.528-1.57-1.159-2.337-3.501-3.789-6.108-3.789-2.607 0-4.947 1.452-6.108 3.789-.288.579-.051 1.282.528 1.57"/><path d="M35.861 21.64c.579.288 1.282.05 1.57-.53.761-1.533 2.299-2.486 4.01-2.486 1.711 0 3.245.953 4.008 2.486.206.413.619.651 1.051.651.175 0 .353-.038.521-.122.579-.288.814-.991.526-1.57-1.159-2.337-3.501-3.789-6.106-3.789-2.609 0-4.949 1.452-6.11 3.789-.288.579-.051 1.282.53 1.57"/></g></svg>