<svg xmlns="http://www.w3.org/2000/svg" xmlns:xlink="http://www.w3.org/1999/xlink" viewBox="0 0 75 75"><style>.st0{display:none}.st1{display:inline}.st5{fill:none;stroke:#050000;stroke-miterlimit:10}.st6,.st7{fill:#fff}.st7{stroke:#050000;stroke-miterlimit:10}.st8{fill:#e1be9a}.st9{fill:none;stroke:#050000;stroke-width:1.6972;stroke-miterlimit:10}.st10{opacity:.9;fill:#e1be9a}.st11,.st12,.st14{fill:none;stroke:#050000;stroke-width:1.0334;stroke-miterlimit:10}.st12,.st14{stroke-width:1.0211}.st14{stroke-width:1.75}.st18{fill:#050000}.st19{fill:none;stroke:#050000;stroke-width:1.6;stroke-miterlimit:10}.st20{display:inline;fill:#fff}</style><g id="레이어_2" class="st0"><g class="st1"><path d="M69.1 55c0 1.9-1.5 3.4-3.4 3.4H9.3c-1.9 0-3.4-1.5-3.4-3.4V7.2c0-1.9 1.5-3.4 3.4-3.4h56.4c1.9 0 3.4 1.5 3.4 3.4V55z" fill="#fff" stroke="#050000" stroke-width="1.9" stroke-miterlimit="10"/><defs><path id="SVGID_1_" d="M11.4 10.3v1.1h2l-2.3 3.9v.7h3.7v-1.1h-2.2l2.2-3.8v-.7h-3.4zm7.5 0v3.3c0 1-.3 1.5-.9 1.5-.5 0-.9-.5-.9-1.5v-3.3H16v3.2c0 1.8.7 2.6 1.9 2.6s2-.8 2-2.6v-3.2h-1zm2.6 0V16h3v-1.1h-1.9v-4.6h-1.1zm6 0l-.5 1.4c-.1.4-.3.7-.4 1.1-.1-.4-.2-.7-.4-1.1l-.5-1.4h-1.2l1.5 3.4V16h1.1v-2.4l1.6-3.3h-1.2z"/></defs><clipPath id="SVGID_2_"><use xlink:href="#SVGID_1_" overflow="visible"/></clipPath><g clip-path="url(#SVGID_2_)"><defs><path id="SVGID_3_" d="M11.2 9.9h17.7v6.2H11.2z"/></defs><clipPath id="SVGID_4_"><use xlink:href="#SVGID_3_" overflow="visible"/></clipPath><g clip-path="url(#SVGID_4_)"><image width="145" height="47" xlink:href="44BB9898744F1682.jpg" transform="matrix(.1224 0 0 .1322 11.2 9.896)" overflow="visible"/></g></g><path d="M11.2 19.5c-.3 0-.5-.1-.5-.2s.2-.2.5-.2h53.1c.3 0 .5.1.5.2s-.2.2-.5.2H11.2z" fill="none" stroke="#050000" stroke-width=".75" stroke-miterlimit="10"/><path class="st5" d="M15.1 43.9c-.3 0-.5-.1-.5-.2s.2-.2.5-.2h11c.3 0 .5.1.5.2s-.2.2-.5.2h-11zM33.2 44.1c-.3 0-.5-.1-.5-.2s.2-.2.5-.2h11c.3 0 .5.1.5.2s-.2.2-.5.2h-11z"/><g><path class="st6" d="M26.5 31.4c.2-.2.2-.5 0-.7l-2.1-1.8c-.2-.2-.6-.4-.8-.5l-1.4-.6c-.3-.1-.5-.2-.5-.2s-.2.2-.3.4c0 0-.2.3-1.1.3-.8 0-1.1-.3-1.1-.3-.2-.2-.3-.4-.3-.4s-.2.1-.5.2l-1.4.6c-.3.1-.6.3-.8.5L14 30.7c-.2.2-.2.5 0 .7l1.4 1.4c.2.2.5.2.7 0l.5-.6c.2-.2.3-.1.3.1l-.6 4.6c0 .3.2.6.4.7l7-.2c.3 0 .5-.2.4-.5l-.6-4.6c0-.3.1-.3.3-.1l.5.6c.2.2.5.2.7 0l1.5-1.4z"/><path class="st5" d="M26.5 31.4c.2-.2.2-.5 0-.7l-2.1-1.8c-.2-.2-.6-.4-.8-.5l-1.4-.6c-.3-.1-.5-.2-.5-.2s-.2.2-.3.4c0 0-.2.3-1.1.3-.8 0-1.1-.3-1.1-.3-.2-.2-.3-.4-.3-.4s-.2.1-.5.2l-1.4.6c-.3.1-.6.3-.8.5L14 30.7c-.2.2-.2.5 0 .7l1.4 1.4c.2.2.5.2.7 0l.5-.6c.2-.2.3-.1.3.1l-.6 4.6c0 .3.2.6.4.7l7-.2c.3 0 .5-.2.4-.5l-.6-4.6c0-.3.1-.3.3-.1l.5.6c.2.2.5.2.7 0l1.5-1.4z"/></g><g><path class="st7" d="M35.8 28.2l-3.2 8.1s5.8 2.4 12.3 0l-3.5-8.1s-2.5 1-5.6 0z"/></g><path class="st7" d="M53.6 28.2L51.7 37l2.1.3 3.1-5.3 3.1 5.3 2.1-.3-2.4-8.8c.1 0-2.9.5-6.1 0z"/><g><path class="st6" d="M46 42.4c-1.2-.6-1.9 0-1.5 1.3l7.2 23.4c.4 1.3 1.4 1.5 2.1.3l2.6-3.8c.8-1.1 2.2-1.2 3.1-.2l4.6 5c.9 1 2.2.9 2.8-.3.6-1.2.4-3-.6-4L61.6 59c-.9-1-.7-2.4.5-3l3.9-2c1.2-.6 1.2-1.6 0-2.2l-20-9.4z"/></g><g><path class="st6" d="M42 40.7c-1.2-.6-1.9 0-1.5 1.3l8 26c.4 1.3 1.4 1.5 2.1.3l3.1-4.6c.8-1.1 2.2-1.2 3.1-.2l5.3 5.9c.9 1 2.5 1.1 3.5.2l1.6-1.4c1-.9 1.1-2.5.2-3.5l-5.4-6c-.9-1-.8-2.5.3-3.3l2.3-1.7c1.1-.8 1-2-.3-2.5L42 40.7z"/></g><g><path class="st8" d="M44.6 46.2c-1.2-.6-1.9 0-1.5 1.3l6 18.7c.4 1.3 1.5 1.5 2.4.5l2.1-2.5c.9-1.1 2.4-1.2 3.4-.2l3.3 3c1 .9 2.4.9 3.2-.1.7-1 .6-2.6-.3-3.6l-3-3.2c-.9-1-1-2.7-.1-3.8l.1-.1c.9-1.1.6-2.4-.7-3l-14.9-7z"/></g><g><path class="st9" d="M42.6 41.5c-1.2-.6-1.9 0-1.5 1.3l7.2 22.4c.4 1.3 1.5 1.5 2.3.4l2.3-3c.8-1.1 2.3-1.1 3.2-.1l4.6 5c.9 1 2.5 1.1 3.5.2l1.1-1c1-.9 1.1-2.5.2-3.5L60.8 58c-.9-1-.8-2.5.3-3.3l1.8-1.3c1.1-.8 1-2-.3-2.5l-20-9.4z"/></g></g></g><g id="레이어_3"><path class="st10" d="M8.9 22.5h57.5v9.4H8.9z"/><path class="st11" d="M14.1 26.3c0-1.6 1.3-2.9 2.8-2.9 1.6 0 2.8 1.3 2.8 2.9 0 1.6-1.3 2.9-2.8 2.9-1.5 0-2.8-1.3-2.8-2.9z"/><path class="st12" d="M25 26.2c0-1.6 1.3-2.9 2.8-2.9s2.8 1.3 2.8 2.9c0 1.6-1.3 2.9-2.8 2.9S25 27.8 25 26.2z"/><path class="st11" d="M34.9 26.3c0-1.6 1.3-2.9 2.8-2.9 1.6 0 2.8 1.3 2.8 2.9 0 1.6-1.3 2.9-2.8 2.9-1.5 0-2.8-1.3-2.8-2.9z"/><path class="st12" d="M44.9 26.2c0-1.6 1.3-2.9 2.8-2.9 1.6 0 2.8 1.3 2.8 2.9 0 1.6-1.3 2.9-2.8 2.9-1.5 0-2.8-1.3-2.8-2.9zM54.8 26.2c0-1.6 1.3-2.9 2.8-2.9 1.6 0 2.8 1.3 2.8 2.9 0 1.6-1.3 2.9-2.8 2.9-1.5 0-2.8-1.3-2.8-2.9z"/><path class="st10" d="M8.9 43.6h57.5V53H8.9z"/><path class="st11" d="M14.1 47.4c0-1.6 1.3-2.9 2.8-2.9 1.6 0 2.8 1.3 2.8 2.9 0 1.6-1.3 2.9-2.8 2.9-1.5 0-2.8-1.3-2.8-2.9z"/><path class="st12" d="M25 47.3c0-1.6 1.3-2.9 2.8-2.9s2.8 1.3 2.8 2.9c0 1.6-1.3 2.9-2.8 2.9S25 48.9 25 47.3z"/><path class="st11" d="M34.9 47.4c0-1.6 1.3-2.9 2.8-2.9 1.6 0 2.8 1.3 2.8 2.9 0 1.6-1.3 2.9-2.8 2.9-1.5 0-2.8-1.3-2.8-2.9z"/><path class="st12" d="M44.9 47.3c0-1.6 1.3-2.9 2.8-2.9 1.6 0 2.8 1.3 2.8 2.9 0 1.6-1.3 2.9-2.8 2.9-1.5 0-2.8-1.3-2.8-2.9zM54.8 47.3c0-1.6 1.3-2.9 2.8-2.9 1.6 0 2.8 1.3 2.8 2.9 0 1.6-1.3 2.9-2.8 2.9-1.5 0-2.8-1.3-2.8-2.9z"/><g><path d="M70.1 64.9c0 3.5-3.8 3.5-4.4 3.5H9.3c-3.9 0-4.4-1.6-4.4-3.5V15c0-1.9 1.5-3.5 3.4-3.5h58.4c1.9 0 3.4 1.6 3.4 3.5v49.9z" fill="none" stroke="#050000" stroke-width="1.9" stroke-miterlimit="10"/></g><g><path class="st11" d="M13.9 37c0-1.6 1.3-2.9 2.9-2.9 1.6 0 2.9 1.3 2.9 2.9 0 1.6-1.3 2.9-2.9 2.9-1.6 0-2.9-1.3-2.9-2.9z"/><path class="st12" d="M24.9 36.9c0-1.6 1.3-2.9 2.9-2.9 1.6 0 2.9 1.3 2.9 2.9 0 1.6-1.3 2.9-2.9 2.9-1.6 0-2.9-1.3-2.9-2.9z"/><path class="st11" d="M34.9 37c0-1.6 1.3-2.9 2.9-2.9 1.6 0 2.9 1.3 2.9 2.9 0 1.6-1.3 2.9-2.9 2.9-1.6 0-2.9-1.3-2.9-2.9z"/><path class="st12" d="M45 36.9c0-1.6 1.3-2.9 2.9-2.9 1.6 0 2.9 1.3 2.9 2.9 0 1.6-1.3 2.9-2.9 2.9-1.6 0-2.9-1.3-2.9-2.9zM55 36.9c0-1.6 1.3-2.9 2.9-2.9s2.9 1.3 2.9 2.9c0 1.6-1.3 2.9-2.9 2.9S55 38.5 55 36.9z"/></g><g><ellipse class="st11" cx="16.8" cy="58.2" rx="2.9" ry="2.9"/><path class="st12" d="M24.9 58.2c0-1.6 1.3-2.9 2.9-2.9 1.6 0 2.9 1.3 2.9 2.9 0 1.6-1.3 2.9-2.9 2.9-1.6-.1-2.9-1.4-2.9-2.9z"/><ellipse class="st11" cx="37.8" cy="58.2" rx="2.9" ry="2.9"/><path class="st12" d="M45 58.2c0-1.6 1.3-2.9 2.9-2.9 1.6 0 2.9 1.3 2.9 2.9 0 1.6-1.3 2.9-2.9 2.9-1.6-.1-2.9-1.4-2.9-2.9zM55 58.2c0-1.6 1.3-2.9 2.9-2.9s2.9 1.3 2.9 2.9c0 1.6-1.3 2.9-2.9 2.9S55 59.7 55 58.2z"/></g><path class="st14" d="M16.7 15.9c0 .2-.1.4-.2.4s-.2-.2-.2-.4V7c0-.2.1-.4.2-.4s.2.2.2.4v8.9zM57.5 15.9c0 .2-.1.4-.2.4s-.2-.2-.2-.4V7c0-.2.1-.4.2-.4s.2.2.2.4v8.9z"/></g><g id="레이어_4" class="st0"><g class="st1"><path d="M58.8 54.1c0 .8-.9 1.5-1.9 1.5H7.7c-1.1 0-1.9-.7-1.9-1.5V7.2c0-.8.9-1.5 1.9-1.5h49.2c1.1 0 1.9.7 1.9 1.5v46.9z" fill="#fff" stroke="#050000" stroke-width="1.697" stroke-miterlimit="10"/><path class="st6" d="M50.8 21.7L33 29.9c-1.1.5-2 1.9-2 3.1v32c0 1.2 1 2.3 2.1 2.5l15.7 1.4h4.3L67 67.6c1.2-.2 2.1-1.3 2.1-2.5V33c0-1.2-.9-2.6-1.9-3.1l-16-8.1"/><path class="st8" d="M48.4 25.7l-14.6 7.4c-1.1.5-1.9 2-1.9 3.1v28.9c0 1.2 1 2.3 2.1 2.5l12.5 1.2h4.3l12.5-1.2c1.2-.2 2.1-1.3 2.1-2.5V36.3c0-1.2-.9-2.6-1.9-3.1l-14.6-7.4"/><defs><path id="SVGID_5_" d="M38.2 42.8v1.3H41L38 49v.9h4.9v-1.3h-3l3-4.8v-.9h-4.7zm10 0v4.1c0 1.3-.4 1.8-1.2 1.8-.7 0-1.2-.6-1.2-1.8v-4.1h-1.4v4c0 2.3.9 3.3 2.6 3.3 1.7 0 2.7-1 2.7-3.2v-4h-1.5zm3.6 0v7.1h4v-1.3h-2.5v-5.7h-1.5zm8.1 0l-.6 1.7c-.2.5-.3.9-.5 1.4-.2-.5-.3-.8-.5-1.4l-.7-1.7H56l2 4.2v2.9h1.4v-3l2.1-4.1h-1.6z"/></defs><clipPath id="SVGID_6_"><use xlink:href="#SVGID_5_" overflow="visible"/></clipPath><g clip-path="url(#SVGID_6_)"><defs><path id="SVGID_7_" d="M38 42.2h23.8V50H38z"/></defs><clipPath id="SVGID_8_"><use xlink:href="#SVGID_7_" overflow="visible"/></clipPath><g clip-path="url(#SVGID_8_)"><image width="145" height="47" xlink:href="44BB9898744F1683.jpg" transform="matrix(.1642 0 0 .165 37.952 42.241)" overflow="visible"/></g></g><g><path class="st9" d="M50.2 21.2l-16.5 8.3c-1.1.5-1.9 1.9-1.9 3.1v32.7c0 1.2 1 2.3 2.1 2.5l14.4 1.4h4.3L67 67.8c1.2-.2 2.1-1.3 2.1-2.5V32.7c0-1.2-.9-2.6-2-3.1l-17.5-8.3"/><path class="st9" d="M46.2 14.4c0-2.3 1.8-4.1 4.1-4.1s4.1 1.8 4.1 4.1-1.8 4.1-4.1 4.1v3.4"/></g></g><path fill="none" stroke="#050000" stroke-width="1.697" stroke-miterlimit="10" d="M21.6 13.3h18.8"/></g><g id="레이어_5" class="st0"><g class="st1"><path class="st6" d="M37.1 63.6c0-1 .7-1.8 1.6-1.8.9 0 1.6.8 1.6 1.8s-.7 1.8-1.6 1.8c-.9 0-1.6-.8-1.6-1.8z"/><path class="st18" d="M38.7 65.9c-1.2 0-2.1-1-2.1-2.3 0-1.3 1-2.3 2.1-2.3 1.2 0 2.1 1 2.1 2.3.1 1.3-.9 2.3-2.1 2.3zm0-3.6c-.6 0-1.1.6-1.1 1.3 0 .7.5 1.3 1.1 1.3.6 0 1.1-.6 1.1-1.3.1-.7-.4-1.3-1.1-1.3z"/><path class="st9" d="M56.8 67.9c0 1.2-1 2.1-2.3 2.1H19.6c-1.3 0-2.3-1-2.3-2.1V7.1c0-1.2 1.1-2.1 2.3-2.1h34.9c1.3 0 2.3 1 2.3 2.1v60.8z"/><path class="st19" d="M52.4 57.6H21.9M52.4 31.6H21.9M52.4 36.6H21.9"/><g><path class="st6" d="M54.4 62.1c.4.1.6-.1.3-.5l-10.1-13c-.3-.3-.7-.9-.9-1.3 0 0-.7-1.2.5-2.6.1-.1-.1.1 0 0 0 0 1.5-1.2 2.7.3 1.6 2 4.2 5.5 4.2 5.5.3.3.6.3.8-.1 0 0 .8-1.8 2-1.8s2.4 1.4 2.4 1.4c.3.3.5.2.4-.2 0 0-.2-1.4.5-2.1 1.2-1.2 2.2.7 2.5 0 .3-.8.3-1.5 1-1.9 1.8-1.2 4 2.6 4.9 3.7 1.5 2.1 2.9 4.2 4.4 6.3 1.9 2.7 1.6 7.5-.7 9.7 0 0-2.6 3.5-8.2 3l-11.3-2.8c-.8-.8-1.4-1.3-1.1-2.7.4-1.6 1.5-1.6 1.5-1.6.4 0 1.1.1 1.6.1l2.6.6z"/><path class="st18" d="M62.3 69.3c-.4 0-.8 0-1.2-.1H61c-11.5-2.9-11.5-2.9-11.6-3l-.1-.1c-.8-.8-1.6-1.5-1.2-3.3.4-1.7 1.7-2.1 2.3-2.2.4 0 .9 0 1.2.1l1.9.4-9.6-12.3c-.2-.3-.5-.7-.7-1-.3-.6-.7-2 .3-3.3.1-.2.3-.3.5-.5.3-.2.8-.4 1.5-.4s1.4.3 1.9.9l4.1 5.3c.4-.7 1.2-2 2.4-2 .8 0 1.6.5 2.2 1 0-.6.2-1.2.7-1.7.4-.4.8-.6 1.3-.6s.9.2 1.2.4c.2-.6.4-1.3 1.1-1.8.3-.2.7-.3 1.1-.3 1.7 0 3.3 2.4 4.3 3.8.1.2.2.3.3.5.6.8 1.1 1.6 1.7 2.4l2.7 3.9c2.1 2.9 1.8 8.2-.8 10.6-.3.5-2.7 3.3-7.4 3.3zm-1.1-1.4c.4 0 .7.1 1.1.1 4.4 0 6.4-2.6 6.5-2.8l.1-.1c2.1-1.9 2.4-6.4.6-8.8l-2.7-3.9c-.6-.8-1.1-1.6-1.7-2.4-.1-.1-.2-.3-.3-.5-.8-1.2-2.6-3.8-3.7-3.1-.3.2-.4.5-.6 1-.1.2-.1.4-.2.6-.1.4-.4.6-.8.6-.3 0-.5-.1-.8-.3-.2-.1-.5-.3-.7-.3-.1 0-.2 0-.5.2-.3.3-.3 1.2-.2 1.7.1.3 0 .6-.2.8v.3h-.3c-.2 0-.4-.1-.7-.3-.5-.5-1.5-1.4-2.1-1.4-.5 0-1.2 1-1.5 1.6-.3.7-1.1.8-1.6.2l-4.4-5.6c-.3-.3-.6-.5-.9-.5-.4 0-.8.2-.9.3-.8.9-.3 1.8-.3 1.9.1.2.4.6.6.8l10.4 13.3c.4.5.2.8.2 1-.1.3-.4.5-.7.5h-.2l-3.1-.7c-.2 0-.6-.1-.9-.1-.1 0-.9.1-1.2 1.1-.2.9.1 1.2.8 1.9.8.4 6.8 1.9 10.9 2.9z"/><g><path class="st6" d="M50.3 49.5l4.4 5.4"/><path class="st18" d="M54.2 55.4l-4.3-5.5.9-.9 4.4 5.5z"/></g></g></g><path class="st20" d="M41.3 17.6C32 9.3 25.2 21 24.7 22c-.5-1-6.7-13.1-16.3-5.3 0 0-10.1 8 5.2 20.6l9 7.7 1.5 1.3 1.2-.9 9.7-7.5c15.9-11.7 6.3-20.3 6.3-20.3z"/><path class="st20" d="M39 17.6C29.8 9.2 23 21 22.4 22c-.5-1-6.7-13.1-16.3-5.3 0 0-9.6 6 5.7 18.6l9.2 8.3 1.5.4-.7 2.3 2.6-2-1.4 1.1 9.7-7.5C47 27.4 37.6 16.4 39 17.6z"/><path d="M22.1 45.9l2.3-.4-4.9 3.1 4.9-3.1 6.2-5.2c16.1-11.6 6.4-20 6.4-20-9.4-8.2-16.2 3.3-16.8 4.3-.5-1-4.4-13-14.3-5.2 0 0-5.1 6.8 3.9 15.7" fill="#e1be9a"/><path d="M40.2 17.6c-9.3-8.3-16 3.4-16.6 4.4-.5-1-6.7-13.1-16.3-5.3 0 0-10.1 8 5.2 20.6l9 7.7 1.5 1.3 1.2-.9 9.7-7.5c15.9-11.8 6.3-20.3 6.3-20.3z" fill="none" stroke="#000" stroke-width="1.5" stroke-miterlimit="10"/></g></svg>